<svg width="18" height="22" viewBox="0 0 18 22" fill="none" xmlns="http://www.w3.org/2000/svg">
<path d="M15.0003 11.6994C15.0223 9.98524 15.9206 8.40215 17.3808 7.50474C16.4559 6.1829 14.9608 5.37532 13.3484 5.3249C11.6517 5.14707 10.0072 6.33965 9.14276 6.33965C8.26184 6.33965 6.93084 5.34232 5.49718 5.37165C3.61159 5.43307 1.89559 6.47899 0.978011 8.12807C-0.975406 11.5106 0.481177 16.4826 2.35301 19.217C3.28984 20.5562 4.38343 22.0513 5.81618 21.9991C7.21776 21.9413 7.74118 21.1053 9.43243 21.1053C11.1081 21.1053 11.5994 21.9991 13.0606 21.9652C14.5639 21.9404 15.5118 20.6204 16.4156 19.2683C17.0884 18.3141 17.6063 17.2599 17.9492 16.1443C16.1635 15.389 15.0021 13.6391 15.0003 11.6994Z" fill="white"/>
<path d="M12.24 3.52642C13.0595 2.54192 13.4638 1.27692 13.3657 0C12.1135 0.132 10.9558 0.730583 10.1253 1.67658C9.30485 2.61067 8.88868 3.83167 8.96935 5.07283C10.2389 5.08567 11.4443 4.5155 12.24 3.52642Z" fill="white"/>
</svg>
