<svg width="29" height="26" viewBox="0 0 29 26" fill="none" xmlns="http://www.w3.org/2000/svg">
<path d="M14.3865 15.8437C15.2277 15.8437 16.0345 15.5441 16.6293 15.0108C17.2242 14.4775 17.5584 13.7542 17.5584 13C17.5584 12.9167 17.5541 12.8342 17.5462 12.7527L14.1106 15.8328C14.2016 15.8399 14.2933 15.8437 14.3865 15.8437ZM24.8854 4.20367L23.6756 3.11999C23.6331 3.08193 23.5755 3.06055 23.5154 3.06055C23.4553 3.06055 23.3977 3.08193 23.3552 3.11999L20.2593 5.89646C18.5514 5.11392 16.6315 4.72265 14.4998 4.72265C9.0566 4.72265 4.99547 7.26425 2.31637 12.3475C2.20868 12.5519 2.15283 12.7752 2.15283 13.0013C2.15283 13.2274 2.20868 13.4506 2.31637 13.6551C3.38688 15.6767 4.67592 17.297 6.18351 18.5161L3.1875 21.2012C3.14504 21.2393 3.1212 21.2909 3.1212 21.3448C3.1212 21.3986 3.14504 21.4502 3.1875 21.4883L4.3965 22.5723C4.43898 22.6103 4.49658 22.6317 4.55665 22.6317C4.61671 22.6317 4.67431 22.6103 4.7168 22.5723L24.8854 4.49109C24.9065 4.47222 24.9232 4.44982 24.9346 4.42516C24.946 4.4005 24.9518 4.37407 24.9518 4.34738C24.9518 4.32068 24.946 4.29425 24.9346 4.26959C24.9232 4.24493 24.9065 4.22253 24.8854 4.20367ZM9.40211 13C9.40203 12.2281 9.62495 11.4694 10.0491 10.7978C10.4733 10.1261 11.0843 9.56438 11.8226 9.16735C12.5609 8.77032 13.4013 8.55151 14.262 8.53223C15.1226 8.51295 15.9742 8.69386 16.7337 9.05734L15.3567 10.2918C14.8014 10.1324 14.2079 10.1132 13.6412 10.2363C13.0745 10.3595 12.5566 10.6201 12.1443 10.9898C11.732 11.3594 11.4413 11.8238 11.3039 12.3318C11.1666 12.8399 11.188 13.372 11.3658 13.8699L9.98891 15.1044C9.60251 14.4571 9.40091 13.7341 9.40211 13V13Z" fill="#24265B"/>
<path d="M26.6834 12.3449C25.6866 10.4627 24.5 8.92779 23.1239 7.74036L19.0418 11.4004C19.3859 12.2069 19.4621 13.0854 19.2614 13.9298C19.0606 14.7743 18.5914 15.5486 17.9104 16.1591C17.2294 16.7697 16.3658 17.1904 15.4239 17.3704C14.482 17.5504 13.5021 17.482 12.6026 17.1735L9.14014 20.2777C10.7465 20.9442 12.5331 21.2774 14.5 21.2774C19.9432 21.2774 24.0043 18.7358 26.6834 13.6526C26.7911 13.4481 26.847 13.2248 26.847 12.9988C26.847 12.7727 26.7911 12.5494 26.6834 12.3449V12.3449Z" fill="#24265B"/>
</svg>
