<svg width="29" height="26" viewBox="0 0 29 26" fill="none" xmlns="http://www.w3.org/2000/svg">
<path d="M11.2146 13C11.2146 13.7542 11.5488 14.4775 12.1436 15.0108C12.7385 15.5441 13.5453 15.8438 14.3865 15.8438C15.2277 15.8438 16.0345 15.5441 16.6293 15.0108C17.2242 14.4775 17.5584 13.7542 17.5584 13C17.5584 12.2458 17.2242 11.5225 16.6293 10.9892C16.0345 10.4559 15.2277 10.1562 14.3865 10.1562C13.5453 10.1562 12.7385 10.4559 12.1436 10.9892C11.5488 11.5225 11.2146 12.2458 11.2146 13V13ZM26.6832 12.3449C23.9984 7.27441 19.9401 4.72266 14.4998 4.72266C9.0566 4.72266 5.00113 7.27441 2.31637 12.3475C2.20868 12.5519 2.15283 12.7752 2.15283 13.0013C2.15283 13.2274 2.20868 13.4506 2.31637 13.6551C5.00113 18.7256 9.05943 21.2773 14.4998 21.2773C19.9429 21.2773 23.9984 18.7256 26.6832 13.6525C26.9012 13.2412 26.9012 12.7639 26.6832 12.3449V12.3449ZM14.3865 17.4688C11.6338 17.4688 9.40211 15.468 9.40211 13C9.40211 10.532 11.6338 8.53125 14.3865 8.53125C17.1392 8.53125 19.3709 10.532 19.3709 13C19.3709 15.468 17.1392 17.4688 14.3865 17.4688Z" fill="#24265B"/>
</svg>
