<svg width="18" height="18" viewBox="0 0 18 18" fill="none" xmlns="http://www.w3.org/2000/svg">
<path d="M17.8939 7.61304L17.8014 7.22772H9.26457V10.7723H14.3652C13.8356 13.2392 11.3783 14.5378 9.37106 14.5378C7.91058 14.5378 6.37106 13.9351 5.35208 12.9664C4.81447 12.4472 4.38653 11.829 4.09277 11.1473C3.79902 10.4655 3.6452 9.73368 3.64014 8.99357C3.64014 7.50054 4.3241 6.0071 5.31932 5.02473C6.31454 4.04237 7.81761 3.49272 9.31208 3.49272C11.0236 3.49272 12.2502 4.38429 12.7089 4.79089L15.2765 2.28536C14.5233 1.63607 12.4542 0 9.22935 0C6.7413 0 4.35563 0.934955 2.61174 2.64013C0.890785 4.3192 0 6.74719 0 9C0 11.2528 0.842867 13.5595 2.51058 15.2518C4.29256 17.0566 6.81625 18 9.41488 18C11.7792 18 14.0203 17.0912 15.6176 15.4422C17.1878 13.819 18 11.573 18 9.21857C18 8.22737 17.8984 7.63875 17.8939 7.61304V7.61304Z" fill="white"/>
</svg>